<svg xmlns="http://www.w3.org/2000/svg" id="Layer_2" data-name="Layer 2" viewBox="0 0 1024 128"><defs><style>.cls-1{fill:#212121}.cls-2{fill:#c1c1c1}.cls-2,.cls-3,.cls-5{stroke:#000}.cls-2,.cls-3,.cls-4,.cls-5,.cls-6{stroke-miterlimit:10}.cls-2,.cls-3{stroke-width:.5px}.cls-3{fill:#8e8e8e}.cls-4{fill:#c4bbbb;stroke:#020202}.cls-5,.cls-6{fill:#3a3a3a;stroke-width:.25px}.cls-6{fill:none;stroke:#3a3a3a}</style></defs><title>Artboard 1</title><polygon points="198.48 91.92 172.89 84.92 165.88 59.33 184.47 40.74 210.06 47.75 217.06 73.34 198.48 91.92" class="cls-1"/><rect width="65" height="10" x="178.62" y="78.27" class="cls-2" rx="4" ry="4" transform="translate(120.72 -124.9) rotate(45)"/><rect width="6" height="14" x="230.04" y="98.19" class="cls-3" transform="translate(142.64 -133.98) rotate(45)"/><polygon points="198.71 89.14 173.43 82.37 166.66 57.09 185.16 38.58 210.45 45.35 217.22 70.64 198.71 89.14" class="cls-4"/><circle cx="192.02" cy="63.94" r="5.95" class="cls-5" transform="translate(11.03 154.51) rotate(-45)"/><polyline points="192.02 63.86 192.02 59.05 192.02 68.67" class="cls-6"/><polyline points="192.02 63.95 196.84 63.95 187.21 63.95" class="cls-6"/><polygon points="86.56 79.5 63.9 92.4 41.23 79.5 41.23 53.71 63.9 40.82 86.56 53.71 86.56 79.5" class="cls-1"/><rect width="65" height="10" x="58.69" y="59.15" class="cls-2" rx="4" ry="4"/><rect width="6" height="14" x="119.19" y="57.15" class="cls-3"/><polygon points="86.56 77.08 63.9 90.17 41.23 77.08 41.23 50.91 63.9 37.82 86.56 50.91 86.56 77.08" class="cls-4"/><circle cx="64.01" cy="63.99" r="5.95" class="cls-5"/><circle cx="64.01" cy="63.99" r="5.95" class="cls-5" transform="translate(-26.5 64.01) rotate(-45)"/><polyline points="64.02 63.91 64.02 59.1 64.02 68.72" class="cls-6"/><polyline points="64.02 63.99 68.83 63.99 59.2 63.99" class="cls-6"/><circle cx="320.04" cy="63.98" r="5.95" class="cls-5" transform="translate(48.5 245.04) rotate(-45)"/><polyline points="320.04 63.9 320.04 59.08 320.04 68.71" class="cls-6"/><polyline points="320.04 63.98 324.86 63.98 315.23 63.98" class="cls-6"/><polygon points="306.48 89.43 292.96 66.05 306.48 42.67 333.52 42.67 347.04 66.05 333.52 89.43 306.48 89.43" class="cls-1"/><rect width="65" height="10" x="287.38" y="86.15" class="cls-2" rx="4" ry="4" transform="translate(411.03 -228.74) rotate(90)"/><rect width="6" height="14" x="316.88" y="115.15" class="cls-3" transform="translate(442.03 -197.74) rotate(90)"/><polygon points="306.95 86.53 293.87 63.86 306.95 41.19 333.13 41.19 346.22 63.86 333.13 86.53 306.95 86.53" class="cls-4"/><circle cx="320.04" cy="63.98" r="5.95" class="cls-5"/><circle cx="831.96" cy="64.03" r="5.95" class="cls-5" transform="translate(198.4 607.04) rotate(-45)"/><polyline points="831.96 63.95 831.96 59.13 831.96 68.76" class="cls-6"/><polyline points="831.96 64.03 827.14 64.03 836.77 64.03" class="cls-6"/><polygon points="845.52 89.47 859.04 66.1 845.52 42.72 818.48 42.72 804.96 66.1 818.48 89.47 845.52 89.47" class="cls-1"/><rect width="65" height="10" x="799.62" y="32.01" class="cls-2" rx="4" ry="4" transform="translate(795.11 869.12) rotate(-90)"/><rect width="6" height="14" x="829.12" y="-.99" class="cls-3" transform="translate(826.11 838.12) rotate(-90)"/><polygon points="845.04 86.58 858.13 63.91 845.04 41.24 818.87 41.24 805.78 63.91 818.87 86.58 845.04 86.58" class="cls-4"/><circle cx="831.96" cy="64.03" r="5.95" class="cls-5"/><circle cx="832" cy="64.03" r="5.95" class="cls-5" transform="translate(198.41 607.07) rotate(-45)"/><polyline points="832 63.95 832 59.13 832 68.76" class="cls-6"/><polyline points="832 64.03 836.81 64.03 827.19 64.03" class="cls-6"/><polygon points="553.5 79.49 576.16 92.38 598.83 79.49 598.83 53.7 576.16 40.8 553.5 53.7 553.5 79.49" class="cls-1"/><rect width="65" height="10" x="516.37" y="59.14" class="cls-2" rx="4" ry="4" transform="translate(1097.74 128.27) rotate(180)"/><rect width="6" height="14" x="514.87" y="57.14" class="cls-3" transform="translate(1035.74 128.27) rotate(-180)"/><polygon points="553.5 77.06 576.16 90.15 598.83 77.06 598.83 50.89 576.16 37.8 553.5 50.89 553.5 77.06" class="cls-4"/><circle cx="576.04" cy="63.98" r="5.95" class="cls-5"/><circle cx="576.04" cy="63.98" r="5.95" class="cls-5" transform="translate(123.48 426.06) rotate(-45)"/><polyline points="576.04 63.9 576.04 59.08 576.04 68.71" class="cls-6"/><polyline points="576.04 63.98 571.23 63.98 580.86 63.98" class="cls-6"/><polygon points="440.66 91.85 466.25 84.84 473.26 59.25 454.67 40.67 429.08 47.67 422.08 73.26 440.66 91.85" class="cls-1"/><rect width="65" height="10" x="396.42" y="78.3" class="cls-2" rx="4" ry="4" transform="translate(791.11 -161.1) rotate(135)"/><rect width="6" height="14" x="404" y="98.22" class="cls-3" transform="translate(769.19 -108.18) rotate(135)"/><polygon points="441.33 89.17 466.61 82.39 473.38 57.11 454.88 38.6 429.6 45.38 422.82 70.66 441.33 89.17" class="cls-4"/><circle cx="448.02" cy="63.97" r="5.95" class="cls-5" transform="translate(85.99 335.53) rotate(-45)"/><polyline points="448.02 63.89 448.02 59.08 448.02 68.7" class="cls-6"/><polyline points="448.02 63.97 443.21 63.97 452.83 63.97" class="cls-6"/><rect width="65" height="10" x="652.34" y="39.71" class="cls-2" rx="4" ry="4" transform="translate(1137.48 560.57) rotate(-135)"/><rect width="6" height="14" x="659.92" y="15.79" class="cls-3" transform="translate(1115.56 507.65) rotate(-135)"/><polygon points="710.44 92.01 684.85 85 677.84 59.41 696.43 40.83 722.02 47.84 729.02 73.42 710.44 92.01" class="cls-1"/><polygon points="710.67 89.23 685.39 82.46 678.62 57.17 697.12 38.66 722.4 45.44 729.18 70.72 710.67 89.23" class="cls-4"/><circle cx="703.98" cy="64.03" r="5.95" class="cls-5" transform="translate(160.91 516.54) rotate(-45)"/><polyline points="703.98 63.95 703.98 59.14 703.98 68.76" class="cls-6"/><polyline points="703.98 64.03 708.79 64.03 699.17 64.03" class="cls-6"/><rect width="65" height="10" x="947.01" y="39.7" class="cls-2" rx="4" ry="4" transform="translate(255.28 705.71) rotate(-45)"/><rect width="6" height="14" x="998.43" y="15.78" class="cls-3" transform="translate(277.2 714.79) rotate(-45)"/><polygon points="952.69 91.89 978.28 84.88 985.29 59.29 966.7 40.71 941.11 47.72 934.11 73.31 952.69 91.89" class="cls-1"/><polygon points="953.36 89.21 978.64 82.44 985.42 57.15 966.91 38.65 941.63 45.42 934.85 70.7 953.36 89.21" class="cls-4"/><circle cx="960.05" cy="64.01" r="5.95" class="cls-5" transform="translate(235.93 697.61) rotate(-45)"/><polyline points="960.05 63.93 960.05 59.12 960.05 68.74" class="cls-6"/><polyline points="960.05 64.01 955.24 64.01 964.86 64.01" class="cls-6"/></svg>